<mxfile host="app.diagrams.net" modified="2024-02-12T08:09:54.602Z" agent="Mozilla/5.0 (Macintosh; Intel Mac OS X 10_15_7) AppleWebKit/537.36 (KHTML, like Gecko) Chrome/121.0.0.0 Safari/537.36" etag="LcXwi_tFtQMBw3xAbzB0" version="23.1.2" type="device">
  <diagram name="Page-1" id="3CWFQps6z9gdSrBCqDmD">
    <mxGraphModel dx="1312" dy="1906" grid="1" gridSize="10" guides="1" tooltips="1" connect="1" arrows="1" fold="1" page="1" pageScale="1" pageWidth="827" pageHeight="1169" math="0" shadow="0">
      <root>
        <mxCell id="0" />
        <mxCell id="1" parent="0" />
        <mxCell id="kwVMyN6og_hL9zy3wJ2y-1" value="Data Ingestion&lt;br&gt;" style="sketch=0;outlineConnect=0;fontColor=#232F3E;gradientColor=none;fillColor=#8C4FFF;strokeColor=none;dashed=0;verticalLabelPosition=bottom;verticalAlign=top;align=center;html=1;fontSize=12;fontStyle=0;aspect=fixed;pointerEvents=1;shape=mxgraph.aws4.opensearch_ingestion;" vertex="1" parent="1">
          <mxGeometry x="78" y="60" width="40" height="40" as="geometry" />
        </mxCell>
        <mxCell id="kwVMyN6og_hL9zy3wJ2y-7" style="edgeStyle=orthogonalEdgeStyle;rounded=0;orthogonalLoop=1;jettySize=auto;html=1;" edge="1" parent="1" source="kwVMyN6og_hL9zy3wJ2y-2" target="kwVMyN6og_hL9zy3wJ2y-6">
          <mxGeometry relative="1" as="geometry" />
        </mxCell>
        <mxCell id="kwVMyN6og_hL9zy3wJ2y-2" value="Database" style="image;html=1;image=img/lib/clip_art/computers/Database_128x128.png" vertex="1" parent="1">
          <mxGeometry x="65" y="140" width="45" height="40" as="geometry" />
        </mxCell>
        <mxCell id="kwVMyN6og_hL9zy3wJ2y-8" style="edgeStyle=orthogonalEdgeStyle;rounded=0;orthogonalLoop=1;jettySize=auto;html=1;" edge="1" parent="1" source="kwVMyN6og_hL9zy3wJ2y-3" target="kwVMyN6og_hL9zy3wJ2y-6">
          <mxGeometry relative="1" as="geometry" />
        </mxCell>
        <mxCell id="kwVMyN6og_hL9zy3wJ2y-3" value="Files" style="image;aspect=fixed;html=1;points=[];align=center;fontSize=12;image=img/lib/azure2/general/Files.svg;" vertex="1" parent="1">
          <mxGeometry x="66" y="212" width="45.71" height="50" as="geometry" />
        </mxCell>
        <mxCell id="kwVMyN6og_hL9zy3wJ2y-4" value="IoT Data" style="verticalLabelPosition=bottom;aspect=fixed;html=1;shape=mxgraph.salesforce.iot2;" vertex="1" parent="1">
          <mxGeometry x="66" y="294" width="40" height="40" as="geometry" />
        </mxCell>
        <mxCell id="kwVMyN6og_hL9zy3wJ2y-5" value="" style="aspect=fixed;sketch=0;html=1;dashed=0;whitespace=wrap;fillColor=#2875E2;strokeColor=#ffffff;points=[[0.005,0.63,0],[0.1,0.2,0],[0.9,0.2,0],[0.5,0,0],[0.995,0.63,0],[0.72,0.99,0],[0.5,1,0],[0.28,0.99,0]];shape=mxgraph.kubernetes.icon2;prIcon=api" vertex="1" parent="1">
          <mxGeometry x="61" y="380" width="50" height="48" as="geometry" />
        </mxCell>
        <mxCell id="kwVMyN6og_hL9zy3wJ2y-15" style="edgeStyle=orthogonalEdgeStyle;rounded=0;orthogonalLoop=1;jettySize=auto;html=1;entryX=0;entryY=0.75;entryDx=0;entryDy=0;dashed=1;" edge="1" parent="1" source="kwVMyN6og_hL9zy3wJ2y-6" target="kwVMyN6og_hL9zy3wJ2y-13">
          <mxGeometry relative="1" as="geometry" />
        </mxCell>
        <mxCell id="kwVMyN6og_hL9zy3wJ2y-17" value="Error Handling" style="edgeLabel;html=1;align=center;verticalAlign=middle;resizable=0;points=[];" vertex="1" connectable="0" parent="kwVMyN6og_hL9zy3wJ2y-15">
          <mxGeometry x="0.4253" y="5" relative="1" as="geometry">
            <mxPoint as="offset" />
          </mxGeometry>
        </mxCell>
        <mxCell id="kwVMyN6og_hL9zy3wJ2y-6" value="Azure Data Factory&amp;nbsp;&lt;br&gt;For Data Ingestion" style="image;aspect=fixed;html=1;points=[];align=center;fontSize=12;image=img/lib/azure2/databases/Data_Factory.svg;" vertex="1" parent="1">
          <mxGeometry x="210" y="197" width="80" height="80" as="geometry" />
        </mxCell>
        <mxCell id="kwVMyN6og_hL9zy3wJ2y-9" style="edgeStyle=orthogonalEdgeStyle;rounded=0;orthogonalLoop=1;jettySize=auto;html=1;entryX=0;entryY=0.7;entryDx=0;entryDy=0;entryPerimeter=0;" edge="1" parent="1" source="kwVMyN6og_hL9zy3wJ2y-4" target="kwVMyN6og_hL9zy3wJ2y-6">
          <mxGeometry relative="1" as="geometry" />
        </mxCell>
        <mxCell id="kwVMyN6og_hL9zy3wJ2y-10" style="edgeStyle=orthogonalEdgeStyle;rounded=0;orthogonalLoop=1;jettySize=auto;html=1;exitX=0.995;exitY=0.63;exitDx=0;exitDy=0;exitPerimeter=0;entryX=0;entryY=0.163;entryDx=0;entryDy=0;entryPerimeter=0;" edge="1" parent="1" source="kwVMyN6og_hL9zy3wJ2y-5" target="kwVMyN6og_hL9zy3wJ2y-6">
          <mxGeometry relative="1" as="geometry">
            <Array as="points">
              <mxPoint x="140" y="410" />
              <mxPoint x="140" y="210" />
            </Array>
          </mxGeometry>
        </mxCell>
        <mxCell id="kwVMyN6og_hL9zy3wJ2y-14" style="edgeStyle=orthogonalEdgeStyle;rounded=0;orthogonalLoop=1;jettySize=auto;html=1;entryX=0.5;entryY=1;entryDx=0;entryDy=0;dashed=1;" edge="1" parent="1" source="kwVMyN6og_hL9zy3wJ2y-11" target="kwVMyN6og_hL9zy3wJ2y-13">
          <mxGeometry relative="1" as="geometry" />
        </mxCell>
        <mxCell id="kwVMyN6og_hL9zy3wJ2y-16" value="Error Handling" style="edgeLabel;html=1;align=center;verticalAlign=middle;resizable=0;points=[];" vertex="1" connectable="0" parent="kwVMyN6og_hL9zy3wJ2y-14">
          <mxGeometry x="0.0031" y="-1" relative="1" as="geometry">
            <mxPoint as="offset" />
          </mxGeometry>
        </mxCell>
        <mxCell id="kwVMyN6og_hL9zy3wJ2y-11" value="Azure Databricks&amp;nbsp;&lt;br&gt;For Data Transformation" style="image;aspect=fixed;html=1;points=[];align=center;fontSize=12;image=img/lib/azure2/analytics/Azure_Databricks.svg;" vertex="1" parent="1">
          <mxGeometry x="382" y="214" width="43.41" height="47" as="geometry" />
        </mxCell>
        <mxCell id="kwVMyN6og_hL9zy3wJ2y-12" style="edgeStyle=orthogonalEdgeStyle;rounded=0;orthogonalLoop=1;jettySize=auto;html=1;entryX=0;entryY=0.5;entryDx=0;entryDy=0;entryPerimeter=0;" edge="1" parent="1" source="kwVMyN6og_hL9zy3wJ2y-6" target="kwVMyN6og_hL9zy3wJ2y-11">
          <mxGeometry relative="1" as="geometry" />
        </mxCell>
        <mxCell id="kwVMyN6og_hL9zy3wJ2y-13" value="" style="shape=image;verticalLabelPosition=bottom;labelBackgroundColor=default;verticalAlign=top;aspect=fixed;imageAspect=0;image=data:image/png,iVBORw0KGgoAAAANSUhEUgAAC7gAAAdfBAMAAABP2qkEAAAAG1BMVEVHcExecnEpPkAoPT8nP0ApPkCCtaEpPkCBtaGgTnZdAAAAB3RSTlMAJOSIVLmTC1QD0AAAWktJREFUeNrswQEBAAAAgJD+r+4ICgAAAAAAAAAAAAAAAAAAAAAAAAAAAAAAAAAAAAAAAAAAAAAAAAAAAAAAAAAAAAAAAAAAAAAAAAAAAAAAAAAAAAAAAAAAAAAAAAAAAAAAAAAAAAAAAAAAAAAAAAAAAAAAAAAAAAAAAAAAAAAAAAAAAAAAAAAAAAAAAAAAAAAAAAAAAAAAAAAAAAAAAAAAAAAAAAAAAAAAAAAAAAAAAAAAAAAAAAAAAAAAAAAAAAAAAAAAAAAAAAAAAAAAAAAAAAAAAAAAAAAAAAAAAAAAAAAAAAAAAAAAAAAAAAAAAAAAAAAAAAAAAAAAAAAAAAAAAAAAAAAAAAAAAAAAAAAAAAAAAAAAAAAAAAAAAAAAAAAAAAAAAAAAAAAAAAAAAAAAAAAAAAAAAAAAAAAAAAAAAAAAAAAAAAAAAAAAAAAAAAAAAAAAAAAAAAAAAAAAAAAAAAAAAAAAAAAAAAAAAAAAAAAAAAAAAAAAAAAAAAAAAAAAAAAAAAAAAAAAAAAAAAAAAAAAAAAAAAAAAAAAAAAAAAAAAAAAAAAAAAAAAAAAAAAAAAAAAAAAAAAAAAAAAAAAAAAAAAAAAAAAAAAAAAAAAAAAAAAAAAAAAAAAAAAAAAAAAAAAAAAAAAAAAAAAAAAAAAAAAAAAAAAAAAAAAAAAAAAAAAAAAAAAAAAAAAAAAAAAAIDZgwMBAAAAACD/10ZQVVVVVVVVVVVVVVVVVVVVVVVVVVVVVVVVVVVVVVVVVVVVVVVVVVVVVVVVVVVVVVVVVVVVVVVVVVVVVVVVVVVVVVVVVVVVVVVVVVVVVVVVVVVVVVVVVVVVVVVVVVVVVVVVVVVVVVVVVVVVVVVVVVVVVVVVVVVVVVVVVVVVVVVVVVVVVVVVVVVVVVVVVVVVVVVVVVVVVVVVVVVVVVVVVVVVVVVVVVVVVVVVVVVVVVVVVVVVVVVVVVVVVVVVVVVVVVVVVVVVVVVVVVVVVVVVVVVVVVVVVVVVVVVVVVVVVVVVVVVVVVVVVVVVVVVVVVVVVVVVVVVVVVVVVVVVVVVVVVVVVVVVVVVVVVVVVVVVVVVVVVVVVVVVVVVVVVVVVVVVVVVVVVVVVVVVVVVVVVVVVVVVVVVVVVVVVVVVVVVVVVVVVVVVVVVVVVVVVVVVVVVVVVVVVVVVVVVVVVVVVVVVVVVVVVVVVVVVVVVVVVVVVVVVVVVVVVVVVVVVVVVVVVVVVVVVVVVVVVVVVVVVVVVVVVVVVVVVVVVVVVVVVVVVVVVVVVVVVVVVVVVVVVVVVVVVVVVVVVVVVVVVVVVVVVVVVVVVVVVVVVVVVVVVVVVVVVVVVVVVVVVVVVVVVVVVVVVVVVVVVVVVVVVVVVVVVVVVVVVVVVVVVVVVVVVVVVVVVVVVVWHvfnoat9Y4ANcis48ngbtuMlG2QIJmCySIbQeIWI90Fc3aNPI3qPjYNwydK6AJHP+NnT6P1KqLtjm8Pufn18dnAgAAAAAAAAAAAAAAAAAAAAAAAAAAAAAAAAAAAAAAAABARlH8rKsUAHvjKdePhDvAXrXt/dnZYDwYp4PRZB6rB8A+6K+TPf1bMhhNde8ArRdf3fw/2p/jfXGhKgBtb9tfRftPmneAdpufphsk0h2gxXr36WbSHaC1+tuyPU3vpDtAO0WnW7M9HZyoD0ArXabvGDgzA9BGvfF74Z4Oz5UIoHU6N+n77tQIoHWuPsj2NLHtDtC6xn38Ubinw64yAbTLZfoxrTvA3jXuabrSugO0yuc01boD7JloHBTuD1p3gBY5DMp2B2YAWtW4fw0L93SoVgCt0RkHhntyrlgAbXGVhvpdsQDa4mtwuDsNCdAWwbsyTkMCtMen8GxPvygXQDucZgh3R90B2iHKsCuTpucKBtAGnSzZnn5TMIA2OMwU7g8KBtAG15nC3WFIgDaIvmYK9/RYyQCarzNObboD7F24Z8t2J90B2qCXMdxXSgbQfJcZwz3pqhlA411nDfdjNQNovIyHZdL0DzUDaLroPmu4+053gMbrZA73PxUNoPHhPs4a7sOuqgE03EHWbPcFBAD7GO7OQgI03qfM4Z4Kd4CmO8we7ueqBiDcAajbVfZwP1E1gIa7FO4Awl24A+xnuPt1HQDCHYDanQp3AJ27cAcQ7gAIdwB2Fe6OQgI0nT+hCrCHDoU7gHD3xWEALXAg3AGEu1/WAbCX4e7X7AE0XmfsF2QD7F+432cN9wfhDtB00des4f6nogE0XuZw/13NABrvOmu4/6FmAI2X9U8xJcdqBtB4B05CAuyfTtaTkEoG0HxRxrOQQyUDaEG4X/tVHQD753O2cD9WMYAW6GV7n3quYgAtEGX6dpkHBQNohUxvVL+oF0ArfLblDrB/DjLsy6zO1QugFbKcdPeVkABtcemUO8D+6fliGYD9E74v46wMQHtcOisDsH8OfCMkwP4J/UWqXqcCtEnPIXeAPWzdg16p3ikUQKscatwB9rB1P9W4A+yfj3fdV11VAmhb6/7VGXeA/dP/4Lshv2jcAVro/XeqD+cqBNBC775TXZ0oEEArdbanezJVHoCW6t9sy3anIAHa62Bzug9kO0CbdTal+8B+O0C79f+57z686KoLQLvFs9fN+2gaKwpA60X92WLwK9lvp9p2gH3p3ueTyeR2MpnOde0AAAAAAAAAAAAAAAAAAAAAAAAAAAAAAAAAAAAAAAAAAAAAAAAAAAAAAAAAAFSg242jKNr9ILrdrovxr5p3TxOvKaOJTMEyr22kBjuez1Ecx/P5fDZZ/22+/ud4B3P7aQw/BzFb/+1iN2NgJ/NuPp024po/zcD+y+FIptxXdn1pj46Olsv/fj/6eV0t5h3N6flkMUgHaZqOf/6VDBaT+UXNg+jPztaDSNJfnsYQuzb7HADPl3w8fr7gyc9rPr3Y3XjWy+BmnPyaguNkdDu9kEm5+rTl8q/Hl34sl9+Vsnb92WIwGKevJclgMLqd13Y5+mc3GwYxGCx2uNbf7fAu1g84JmuR9T87G2yed+ubendHy2DwZjhpvasg/K749HjRj5vZ+8TLH4+b/HhcLnVrtTYr61RNt0jWM3sa17OuxlvG8DSERi2u/nxytljcPFncNvPW04pkX1/y8dZ5t5hc1DyexdZlkDSqw4h/Tr/F6Nni6UmnUctj3bI/vke+17jGbtL3Pa2zamdPf7IYvzuE5sT78z7C+FV1mtfXteBZ8cNpl4xqLOx6PIP3R1P3zWbrQCdv26D1ree2MXMwOtrStL/eoLE/U0u0j9MAla6z/uzm4xEkjXg0XjdNN+NN1dGLZHxOC5l16aqmix4HLYPdd+/RfLatCxrdzhtw84lDov25fRfvVXehV0HR/ne4VhNg8fw0cAQlPH3GQbpbh7otA95UJw5U+gUN/eBujqrE3dKi9CYNnnZ31W85rC9r4GgK32uiItMi+qALWux6e2bdtT+GW+aZUFE9U7Xi/38N+RD37tNw4+T2ooJ4j8/Ch7A6KTiAziTI+Za19e5Q7178q7Owz5mUvRZ7gZ/7+ieMAv+jaTkXvH+aZJh26arqVz5xeIezvtcUG8zVWYDpllibjT/cyJru8AkyirNE+5Pvcb0ruLxPKbhJHJoPBS7GWZpRcld2GkX9+0wjKDiAg7Bl/G3jUD/IgIcXQ7sM/HHOS67m1zTPB0eB4fZQyhgzROmvHYdK9xv6N5kGsyo0mOuQjxhurFtQJzYe7WxvJjp6zOyv75ljN2z2/F7sZ/n04QcUy6HAJbAqMKkzr7L13JmWOyGuBrUu9IOwDznJU66X4f4pzf9BRcoZekVX3V2Fey/HrEsG1b1Nzz4DB9Oqw/1hYyc2CKzVXXcn2R7/eMxjmXW0Yc3gl2I/zOdq27LAO1T+n2J2k+YxWJTYGnTOsq/0UZFAzN25R1cflutluAd+TvpnuQusE1rEL7/tJtxDI+qfrzTOq4mkPDMwue1WG+7DTas1/OXY6KT+aI+WjzktMzbvYQ+nq2I/znWOiCi/x0z/yNuw3Kc5jUpro3q57i9Jgc8PDN2TPBkwfDGsKLC6D+V2WYehNfy2m3Dv54jSX9WtJLF6i5pvNfk69yhbJzaq/dhwnDvbHx//WmZ7axFWg0IVCFi+hR4NPgfOs+O6Nj5fzu1ymveczw5Fdv57+Tr3/lnWoA7c/E7KbUiv01yzpqZwj/Je8KoSK/+Acq+AoHkxLHpPLGuFhjr68VhEpq2ZAjur4ROj4rUQuE5XuWZ85yotZHhRwkKb5b+/5E73fJ37PKgPfxXuoT30calhFfo+9c2sqSfco9l9oUmXlJ3uUYEZOLyocFm/qXP/tMa7T643qcWy/elQZLPeqPaqCt5sz/W59paigtlexkIrsrLWD0VxpeH+qnOPAtv9V+Eeuqt2V+oGcmhJH36rP9yLXfAyjkqVOqCHi+rCfVg424se6qlnu/3F1kxcdjIWepsVsG1S5Jk79NVYnq2f6DItruBCC03MrT93t8pwP8kz0pd77vWeLsx6R3m77VTHYIs3FPmv+uYBHRYby8N5ZeH+qs6dnM87taV7Cdme6UzkdfZWq4qrVOCZu59vmZb5SuKDO9ew0EIrmO1p8qXKj/2WZ6SvplPoDsmqxLgKv7DHtYd7KQ1FOh6WV67Dog8So25V4f6yc+/kfk+R1JLu0Y/Hx3rTPWwmFemsgxZvgeMyFe7ZXo3TUtK9yOm0XuExJLk2NLJ37rPgs3uve4X/7OCNauiW+9sPrT7co9OSJl1p6V7CDPwfdefvnMayRGH2gVQvBAO6Dh8SKlIh4SJFEipSFkml1E5cTu8KSrETFX/2k+VrX/3YXU73nO4Zb2yjYXb6m9OnewbNWKTKvRVQg/bQ7iy2C+jexb59iG0yEu7ARvVU+VcQXTlQ+9yq56+7IsT5xA7uuWa2XsMd3Z2XxEC7U43UAe7ZpxFpzYX0mNOjQDEWYbdMKyhQ7E+r8tiO0x10rAOUNfQX9J30aFYvd5Z6NLY/0V25eHorxl/fjM3gPtYw4LWQy8D/NeRFGnpy6t3ftIY7xW//nbEx6M6JAkX2KFPurU9hAzyaGbP963brTndQwwQEFiTMCvU6RKso4ppw6/SB+OgawjLSGBRpp9BzFzHgzUYL/tcNL9TgCuHYF+5Mtj89hI7I1pS004xN4H5EmzhbujN1u4DuU1Mlgrr6yhNGgr4Hae7BqWuF0Z0X6/K8RabcO9OA0YAzTTTd4Xc7c4V7dsldc+F050WBWF9IlDsjUJj9RdZsRzsisfOdAa0KWNj/T20JGtVT++Q4e1AUlbq8v35jBPdcw4A3cAfvDityWrChaca7ZW8L9y57zYW2gTAzCam+kCj3bpQQwZ+vW/rziEwnFll6ZW3t+6CyT7i04FMuAmkgtjuJYxC/QJFy7wftc6gDPqAJKXRi1w1PuBusOUUbAbdRRr/+BcqdNHFmt4gdbLdx6A5OjN42wT5f3S4D+gHC1CM7pceZuKiUrWKGucRzbwqD642Ic787DBZ6A0+4t1b8NadrMbcZkdB2n8LYYAXr8ewPYvsT3WkpqjolRnNu5SJEwSCsp/ZHBoEmXN3c4prUFhIodzED3lJ6artGlFZkmaQxhLuFnnhQNSFalZ1k+gJX7ldJ7ISVz/7W6PlC2iH1FVX0zkblrolmZLKUXnuQmbm6u+T9RZg44J67/Geq3sIddXVYygqt/r7fTQzhfmWy5JRH2J6fS/IKlOkL2HMnBorFr3fwi6kCumOLSt2HhuoRpeGFJgYnMSWLZnXz9xeZcMKVuzy43k4D2vFEMt1hy/2+4Qd39l7+72vXFlX5K1CUuqLKnTnMYvwnsX37+JlUUdWqpjvbwEUTA9GW3H2wemBpYLG/iJq9YM9dccrlrXJH0y/SrzHBv8I08IN7785szSlLFRY2kURfgMqdO8zAAnTJLB5sDZ+dRVXbiipcyFYGLvhqRYkH/uPJcmkwi7m/SHQJqtw1k/UONzZV8cqCCjrOpRvcDZectoO7G3kooHLvpzBX7sXUX893TklSqazhu1V1gYvWU4cmwa94ltzvJdQlbTrcl5rJegf3BfgfObpqod+JreBuueR0lqdR2QkfCrTdHdHbR7nGjKUp8/x8ZsyithEdbkzQ+T7ovSR5/GUt+pZG1bUhHe4TzWS9Kz24/hoT/itMDS+4G3S4v3w0XSBGZSfcI8KUO32Y1JulG9Zs32nMXFh+6QU8qyq4W5xPvTIMs/u4wS7YQUHP/ZAS4ZY/uKKf3KEX3I26IEPmrWm13dxQyVGMEpiraKYM0O2OAVLXZCywF1Sd9AaNlpbCHf2SZsGOt+uYRXcZ3OFjTIyIawa8LBu4XxqzXd4FYrfdwCXLxUOch3iF0f43e7jv6IcEZZMqJc5GtjvmQkmTSPYnuHC6CUS5K9zR90g5xtQPeFkmcDeVE/IAsF2BsHSPBfcH2q+cZB5s32HMgLIpN1VJOlWG2qeCyw2yu+gxZtk6AUe5Jdzfhw9ammGY7rDl3naC+6kDsWRHmVIoO0WDO62merB1eR4JLFlbqiSlqY/ap7nJiOXPIP4Q0JXbHXnuMDYHjcN273XDB+5dD2DJ7oe0LDs9rNvUPdjAOeJI9/2t01NrzPxlktlJt1+N14UW4k74oa96ZvGHgK5cX1sGheZReMzB9dSBD9xtX7dq5ox9ohkbHXHTnGidMpAxgylF1eEtyfa7NEsMJE0i8cFq2/OMZjG+cEetCYLpvoeOcuwD974PsCQXcFzZDuU+dbhTzqkebN2e7+H6V6Os7/jUUTTjCvKsC8tFM0hANqGT4eu5W98vp3nDbRe4O1RTpZm39ZCwfSYi3BnSPfvmB/e6o0zgilXUGVqikDdLDPByge1pkpMEZBP6g0a+njusp8N/jekuBIZ8uF+4EStPRLiDkR4T7gQN8dWR7duvwYxU9CqKTA75xZOoXYmX4T5YLplNGkoOk+7Otozb3WFwc+7fDQ+4G59N1ZgN9kOCpHtMuIefZGptXZ8voUhT9CqKZIncT0UBNGbvFoYrxlw2gb3uznB3uzsM1htLD7hnp47EuklEuGORMI0J91Dp7mrK1NdU96ziSvSC5L/Tiuby8MCbpgvmJPr2InBfnT13WAeEJswfgsKbDfemJ7Ew6e5SBJglrtxDpfvB1vn5HpiIyXczIamWRokBviuZGqDQMFx6JxDp7uy5w4o69IQJqjc2DQ+4T9MjlssKXKcO9zDp7i3cn552IITF8BW6d2I/9ZS8C2ej2KGVuUT7UWTlXgZ3p7vDYL0x9IB705dYhzO6ILNjZ1y4hzXMuAv3OumOIUXcqbAnZI7U9wHXIVxPtT0reMKfMUNZ4g13p7vD4P6t3APup+kRq5nKSCLDPaTXPYJwr2mHxOwIsWgS9p5IK6poYgBnHPFdGac0fRgX7mW7eLYgTmO46VBRIOHC3XKOtbu6036z+zVGhnuR/1HCvaYdEqyomjbLyItlTdqK9shI1wlFOyBLvD13p7vDLsLgw4X7qTuyhsnsN3kiOke2SNMV7tWuO4ZJca+iFJZjk8QA3pNsXZlx7NRB5rB52zKwHxB0jAmuadw37OHe9CfWzl3dbQXu9GAjK/eA0n0U4V59OyTY/iQUTZl0OoV3/oGv/8gq0aB7Tn4nWnZnxe5wd7k7LORXmOhwj6FNb1JZgTvT9Ohw10r3SMK92nWfWsBXrIRl7TKoi5KzVZ2Vze1xfKTeUo7oucPTvwmBOyyWT+zh7ghSWLr7rcCdwR4d7tojFR8jsb1Sui8M4Cs/yy8rlqGJwZKt6lTPkrdbuew17p67y91hIb/CxIb7VRRi5fE7cbFUNj7cB3+WcN9uZyGLXpioiF+PLG675A/tx1zK3h7szvG42zJwG+gyAO6nQSOkwt1zK0cFVCuZbSYFuOsasw6isb1KurdohAqSAScGKgx+RaaW+1HsAUjNKn+4o5lTyDEmFKhVOSoR7v04xKo15FxX4A6pOI0Od1VJNaJw3z5+Dlm0ImWtsDnGBokBfIfTXUyWNhxv9q72vWN67jB5jx3qqbk53LNY8LpPZQXuSKnjK3eVjIgo3KuOqYJLTdSG1rKdTTQ6hnZ7Eddw8pVyu0bk77mjujHAdIcPAM/M4d6MhqxZKsnEMHW4K1ZaTOFeeTnkgr+VKZbKvYEKQ7OB/0SSS7GkXJ6aLQMvGP3dYSgwKq08HtzjsWudyqGqesM0BbjLz1Tsb7fpSfc9Onw1Bp6khIEmBjNy4Ju5Mumk55HgjorZgZbtgbeGMeEepQ/ynyCbJTKm+n7cBOCuOFPxLS7cy6U7Fsui+rFCiUryIHI91dZyB77XB++VO0vNcze/Oww+VTcwh/tVRGSNUynxDlOHu9iXybaRny8+FVUVLZf0xOCeHfhEqRq3My5PzXM3/zUm9FRdtaRkwT1aObVGufuPqfZFThOAu7jt9mNsuD8GtCoIehVV0i+nJwZ/o8O1XCOAkdDyD/LUbBlYzmorqvCvMLWt4e5+H+SL5yYdp+gkceUuTRKjC/eKOwgughYGi5ZremKQkwPfypW5cF+49TlnDLhb3x22CA5pFtwvIvKqnU7j/Tp1uAt9mYP4cP+qf7WCnUy1VvCLQ1CdkUI9dcPbq0rW3+HTw88nInju1seY4Dm+sYZ7pNOptY672gf5sf6Ui6XOl0kC7kId8S0+3Etv/m2S4avrq8LPwO6FLx83w3FglOc8FMe3Z5PJfH52dnsrB3xtJSCG5w7fHaYz3WHn68Qa7nvxaFV5eE3lyhzfXp/N5/PLpwW4GjF3mlTgLrpOaz8BtpeWVDExgacpSnECm/qgjYI2MykP540Q2VIAX0rTPXF4PDn//QG9y5UY77PEbBk0oJXHmFCk1nw8Ce7xwFW9FuUbTnF4PX96k9nPmZl/UuB9mDrcRb+29zEFuD/qszIYvrryTDEgJwYDtqp7Mdbi8Em3PD2fVoejUWC6I99bis3kNSOzyxUx54wCd9TKW6rgfhE6PBbcbX+IXalExalrcX3+JoY+ieVFTQ42TQLukhaSLAVXprykekGFpbb7BE6D7rgYkA93c33+z8ps/5AtoyCLWLEVXr+Pi84pb7JjeO7wFqv7aXoUF0cNY7j347FqRsu0N+fvP6QnlRc1SW0ayl1S30nClSk/pdrnfldl9wl6qzBIQ7P7fjeTzsuRZp3O5Shg8xeH+2ZcNlE1g5DmnDE8d9tjTLDzllvDfZEgqqTq5qhTugCl9mKeOtwF9Z00hHtpSZVcUVU2e6EVVVBYWt33+1u1v1jXvauRegzSHPT4vAI+MrqfJGbLwHeHaSqqML5mxnCP58rUaB1hANx0yj9GKC9qJioRuCMFs2Sa3CtLqpgWRsNK3ew1oyYGsMQT0bWYlM5CNl85uTJH55UfdSmZ+JvU4N5nR5wiO6pb4hS4d6OR6oZU9KkIAIW8qN5uEoE73gx5kArcH9V9aGBYqdUJeOUf+OphF+mOsrR7Zdb7mMedX7q9bgeUBNcmMc8d/quau8PQgsS6YQz301icqrHhRA0FRV3NI7uSrJximTrc4cvDUnFlSn2ZBXMjU5/mH1ITA/R2WEmiUbe0s6tDTa6z4LG90RAEV02aHsVzh9/DWgF39BUPjOEefoKpeD64Vt+iJYxdibwormuXdHZKifcpZan9nKnDgMWMehX7ybC9zJfpM8NK3RCwpiYGaD1V4ovUb+XdQ/luJQv3nZ6EILiWidkyhneHEY4wceC+F4qr4+eDQ/PJ2a2MWsdtirwodmnZTNIzs2nbKffnqZrMnw/56QEPCsSP6cD9USu2wXYW9avBwrZFZoAAZbs+863kpV/lnhP3imFqcLe7O4xhuVPgHnavzO3kZSmzd7aiUEriou4OKlEJaWYG9+NfU/XjmFWntls53ALM0nFlylrds/C1LzXwZU6BPFLhemqTyNbenXS+RP1jw90fiFfsNol57oZ3h/2FIqFhDPcAV6a4Pu9krwfUgY+u1ckygbwozrl5e24E97dTlWU9Hd4xOZuQK1Pmy4CCD4JvwE/tQhVbUP3A9dQ95qt+RXekHjMlL7UM3y1maXnudneHwXJjaAz3gJt1n3hV2n2IBds5h8aISyGx3dcmcL+el0xV1tPUsjE5+zEluD9qpxOyoAJuJ4c02ZT4WbLFjXzkS7oD/15UzR1z99bcWrkXh7fPz0vLs+58/5S3x+mMh6Ux3NV3S28mFb3lmCQdcuTFUZss7qpcnhC4byYVO1nvUrGsIbmZkitT5stgyw7STAGtvMjnoziEndmL0KX4Zg2tJC6TpLPohrxZrU3h/rOe1el0er355b8XB9aRGT3GJDXd0Umu/2AC3LWG5XWN8s52i/fa74XLC/Qiratgdk71y+563iC14cMxl5QrU3YFQTN03VKKRve8SMUPMl4wt54fA1wJXBlBTky/wbjyA8Phfnh7Nm+/VpiXn575Xgf3fhgSgmmzadjCXXkApLie1b76nc77kCIvCvRWH0E2mpOV+9NU1c7UyIJI/00L7o/KdQfxJWDbRT4fTAzw3B324lDB+MuyzqmTVeRsoVr5hf7P3tn8NnIjUdzyF+bY/vZxFEnwtTUZQFfZiKMc1RkFutoXw1e3JMzZF2H/7J3dbJCJ1a1+Ve+RTe24sXvanXaLZP34+KpIsp57Oajc6nX+8+8/SVJ71rPDUFb0AsP9zAmspqF89juxIIHlBR5RFyw7vXBvnH/MdEeIlJYrU+XLQLMtsiBm9mkg7weF9gsc+iNhP38fxFBj3Ug1hPEXDcMo93KW1YvMbYgIdHYYPCKLwHD3rWmBqex86y/sarTNEG/xOcnOSSC22/fgAIdddBJje0W9DNbHwIKYumt3Gj+fCo9Ewx2v96jSMWDU4EWgCrEfBO69baUZnZNt/+NEPc3aRmQeFu6+GuEZ8mO30b2htdDhb0ljwwitEUA+uJfD5k/MrDUzzWF3mRrc187+AJB5wIChq2KxIek2133bP+iO/P/x8omeIbbgspMQcP98sud+TmVyylPr2pAwpOHukj19qN875zfOmIU/yiDcDav3qQ7uCNu//V7jDNucaEvNlak4XwZjck84a/uaEj3MPZPD3TS67zGLHh/Flr+O9kEdzQjPffA587MdFgZT01vhW5j2wsLdY7n3QJFSXwnSoLjRmc9Wf3rBBbxniVOCI884uBstwORcmQrTHYMmcKQ7de7dShX/htu80c42je7DT4gxjFvutthCS41ztXLv3e4xD9oetm1MI42yoOHusNwN13je1+lZzdrRtliC1wMrlXIvZxnXUF6VeJwe3Ne+pTwgiOcM3JsJeioPf3AcljZOHSJSG9/vNbT9dZAjhRjuXzi242eHhZgxmtqYhrs9MkpDt9fsDG2y80gHj53IqoHigPsXWP0cmu4DbLQAJdtT1/97RHDPXL3c7HaSV80MRaNmKo/91Z7+gVev1pMQQTz3tHBHPQSeCWN9WzQKCxbuDsvdVPNZCa2mgEV/VG7sSDjzlmvgbklJ2YyZJpLwlvvz09OvJycnnW//ffz1aR3Cl8FA05X1qjNjO9fMt8oKN/8zkTWLT5CtpJ77IKMb5ChAe+yLnC92oByEbtAzxwr2PIy4wFOqXQncV2N9cGDEY12Z9dPb1e7JEz1fvPrSPY12xykH96UGxYbBiMZsT892uDbOfm/oBfNen3Jf8WyH1e2L4Z13cYdeLdzNkWE9ZqFzZ38FuHY0n9UG/9q+Au6lzbU8t7y7FxLu68eqoOlcPotN90OJvGFP62x6/wEXYGnBHT5iqR+IkjULHBfcV7eKJplrholHQxaB4W6uNJjx46lx4IDhOg42TVdKAmu1zMymKzoWSDUIq2cK7W8Ocf5bvZN4z1xB0KQh/Ye5Y/JPrzTCVGhgAUAZk4p++CiDu1E8kbVWhqUM2siNIpeF+404FABjptmtGKnnUvOcmvEKsWf9vHNDXzSMCwLCTydbvvvkSbpJdaKYw8l8auP7JxoVloZyPwsX5uAs2Fd57uXnuCnmXP7GxkYm4W4+CdsxW76tmJmJEFw4evKe+Jk2uDvWjPeqfjgmzPbtA47yZl59LlkhEqO+IY0uDPKdgDvqBnsWDdiyuDpl51DuM1GT6M8Ou/oq6l8S7tbNfb2M7nXgUrwg5r9pEBUs3EvH2LNcKNQNAvf1Y/P64klXDCnJqF6wcO8rAswyGlsshURHmCe2GJfNDvfBWNQk8rPDYJ+wCAz3K1uLGo9YqNQLzYL7TNvYnp5csnB3zYIG6b4M4cqskYAh7mZ9cGm9hUaMOt8PCjuLR4jGbJmp2Y4Of18ZypV/3jDDvRzL2mQibhPRqWE03K3JKOdC8fuPBCopMcZNXZ8y8TfXJPjYM0j3RQD8rsHh+5vMdId+b0OOZkTDPRMsDJaWfkajf6yGO8rQF9fbMVE2lHjuM12jqG9jQn2e5twjCXdbmzqF+/fmKvKKUcCpmzjgaBR+7OEqdJuO6IRlO7Ey8FUqjCU5cudI4rbVU3AvCzXc0R07vjoUjCZdhXJ3FFPUz3jg35xqEQNYDxzcjcko95a5v78SsSsgijoNyUO/aDIod+/uCkN/bCHSZWC2u+m+9mVU86D51Ib36/OpuHKX10KC3PH6QdA8uxTAvbwVNsqhuDcmsvdxcDceCTmkRxXSK5g54dTGqNDLKbh7G8pgk22Bu+tgmbXlUGyv8fPgUpIzhe5yqm5wvNhwOA+sEWqfT2FFHDRXV4puI9xn0lZBExFawgCQ4OBuS0YRa6G/gI3MflhHex2iiTvgJxEa6kIwf7jIC9TJCOjuy6j2REloj4QCs2OrIHD/OhTDfc7PdrTrU+mC2Tx327kemjkJNoLRfCrwOg7utmQUM9Tu8V45CipqwJ5cEnB3pyYs57jNtJb7o/FDffXury6Vs7WvRzzcF7xLbTNQ4G3hvUxKMbSsMw86esesclfnItBMRC59G6AAKbjbklHUIvHPfoeWUxdsQCoctgUBd2bzCcyqepx4qtyfzB96KTHd+dz5nIf7Nk8FXEp9DAP3UivdgyxDzJ2Rs3AXT3mwosJuPVSdGsbC3XbeLzdf3sGjBhr6btfNf8gfyl2qBBf2ZRZK7K4d4eKS7pnLVMkVSx1fh2EcNmpd3A3VblK9YIeWJHQLFu5qswo+O0wqz4rAcD9QhQDwnMPTwzxsB8+9v1aXBacTDltXdc+8Fx7Mdn9wjcAiaD51a5FbiHyq4ShWwuHz/91+2NmjT3ruyjJI00oK6mW4unwcGO6mndukiOiM0OXeXNQ0nGzKvXDnJkHYKatNXzig++r61EuB6Y4J7y202VfAvUsbGaHS5tqCmYl36KPPmRdFBuVeyoU73B9IZKO/BJkpKLibimUKugWxN0DxRIz5U6+aA0NjGSUA6+eQThRTxrlEWPsyqgqHw9Vl3OVxbM7tP88XHd3BQltCnUCxS8JdL9zh5V9Xh5evytvMF2ylAS0hOuAwhfqZIOiRtyMx7LL7K2BVl8vyqY/eHuVNd/qS7LkC7vVjez+I8LF4SaWuphtcFRKRDm1RqXo/DvcAwp06ccorzrqh4W6JDH633K0Qvl1imr5x/t6JbEbeGh+sUXxNl7CENGYyj/Kud57pw9z/fLK4Roat8O+zSqoGOAPNIxerVga45x5AuMMqF5j20HkCSqYwcDdFRoAJk1jXEF/jtlFHsk4TfF69WnxmeRs0p/rocWnrlfGZhO21wwndn2o0MixnO38bicMsKtwZX3HinArx6a4IwRzU3Bur2libnCWNrgDHjzLjg0laogHrG7j8GdyoV9YXwf2VaMpLPqPK8eZCA/eCiy6rmjQedqZyIs7C4xOi5JRA0SoIhw5IEWBXGxAnGLhb8jrLWGyHXFhqqvFWt0Fw70WZ3Lb8pU484e6R7mvX+K2l50QD92VkrTv62gbd71UEIzNGBQH3fhDo6M4Ok151xcB9X6Bt2kluUPoYjKyxCyQLugHIE0OP4wl3j+u+UZlDZVTZy7GbJo+LQMFhvZZek1WdOAe+enHQJzz3cXvQgaIbHZB5aLgbysjKcTS4Iz+I0sd3TgETSbmTC7sPEYW7R7o/vHnDFRPTonxq7WI/TD7VcdpZ+WW8E3A/dMYIqtzVJw8Ym6bxbCw0m4LxlIG7QT8sYrEdGx79CHDvtqTc4ZRM9T+/jincHdL9wSWOh1xbeYE2CqR8HPtqv9BHmKNl7pRP55QlKNy7gaiDLpdzUfBiqQMC7pa0TjctuHcjdOSLK9J55c7dsGmV0g/s1z63uUf1TAX3IbNatyf5PJPSii2JhH9NdtLx/gfqzTI9uKMdUogmieVeaLjja1rtERe8K1F0iAHovRUzknJHdx/U6MVYNe5/DaJrtqr+hmjWOxXc+1Hzqb7jzsoZJ97BP1r+zDw3Plly1jLcURY2abdPokmChzvvSba1QOox4w+9jiZrx3OHL+ytnHA7cYW7vTrHd+pvzQAcqeBOXVRmJ44zETy4ZeLw4GsiT4UsaVu5w2eHaYQZmNcg4H6eouWuE2PyCopYyh29GGbKF8usBZP2M5nBPXXyYE9xOfb27LQ39S5L4G0679n/A9zz9OCuuY0JvoUpCw13g2E5iwf3STJDsC3ljlaoTvkE56ugw47JjCq22yKXuRuGoAX1tQO43s1X5cBfhX6UTGRN04M7+gFTyfy5CA53wwCLZ7nrVtryCopYyh0Nwo9V//i3iHWQPl/mwRVWRWAtmvsX2R7P8tz9oT+5iyIvkomsIjnPHeboUqH/0Wo/Au5XpK4J08jpwj1StQynYp6jplP/+5DFl5i3sgiMq8K/MOgHZElVMP7hLJtJxvCsGLmtK3dUVA4yhTIdBoc7boAEOYmNqteK8eQtKXfUbKiCiq0y8UHSZcdRMqpMbYKzMQ/CAYfSMKvPtwHxFeF5SRDuaBnDWABjdCsBAXe8s6MdLKO0Ueln2JLnzqwQO9FdGXNKde0Kq0rvQygEVv6FgcuzPKW+dvBLtstwXyYId8XZYYfEYNPC3SAeih8S7kVLyh1lVtVW7OP4rox5l2rmSuznUm8DElOYmPN5lmS6oJydhBpWEZ5NJ6B1z51aLwey3Bm44509jgj3ZEbgRolQLOUOX8bOwv1B1GfHXEYV6/KP/uSEF9FgPjXo8qz+z1qtmU7KcG9fuaNadyGo9JsGh7tBI8ez3NMpxt2cX6Mpd3CYVTkVly24MlZf5u19HdhhSxVqZ1/Z24U3tJzTOZ0vKGfZrsJ9lSDc4agb0y0Mr/UIuBN98UPAfdlStQwa91Xd8tyCK2OF++ueqGGl5R/uCg7nHhBBpc8fJvGekOFZpgh3tEO2wF3N0xhwj5hPTagYd6PJoin3O2+I2DD7KOu0Yw7uE9+v1VbNLqPmUzWsHViKIpOGe/ueu+DsMHRXKCwA/XDHNXL3He5RPXdUkZJwf5B1Wocrl8H6fBwyn1olpzAH1bsHRDI1lYaDgBNaE2/2ZQLKnT877I6eHmRwx08fmEaE+31CcM9aUu733hAxlbkrzpVx+TIbf/jQFxLa3PsGpEH6uj1LzUjvwUWRR+9wl8y29R2OTtd5eLjDGjnieb8pbaPb6MVoyt3v/h0z7gjxfKBqIbEx/BJ4kZf7IsvtWYpskhK1Zt7h3vCwZ4ehtzA1XuckgDusHCIePiDddNgK3Bc7A/cHpeoxwd2nkRfewjPnYhlcGLgvBVOlDNCqmf2E4J4n6LnDvtWU/Pc4IvxwhzVyGZHtCW2j25hhoU9TKPejKHCXlkBxh8j79qiKh8rSN8UOg8/hjQ92DvBpQnAfpqjcUZT2yf7spwT31Q8K97crlmjK3b8T+kMbhZBm0/3RN5u96Q513fbCFx/+Za2sfKUcjN/hLnjAAdUjHeVhBLjDq9peTLjPdxzuMZX75ii5bsdyNxZDvvpCexgyn+pcqFF7QGT5pXJwG/GvBbDA0oA7UYJsQdc4Atxhjdz/QeH+1hncAeV+3Y7lzp5pgw3ima/aa+ALOnBhwPS3sPIcuMMjabin4LnDoiqnetMgByLAvXiHe1zlfuDumOe24N7htsbOHUMYLQiYjVzNCcYqQ5uOsHpg9csOlSpstloSyv2Q+gg0ag3lVRHgPo3I9s6uw32xI3BfizuOgzukKt/sO0DHb476jzNPJ1DBgepViO63OwT3fpJwR+GzoHIa0whwxzH6DvfI1TJ+uP+rNbhfM7uYsEKDf+ZA8FOa0CqGhWNhwJUJSw9QKG93Z02cJtyZQ51gsWEZMRHgnkeE+2HCcE9OuXcJuL+KO447a/jA3h+4xYma8ytHoJOVZNJ9WA2bY5KGexKeO3V2GHwL015KcI+6hymh0402lizJee4bI73zb/bOpTmNZInC9IAcs0QWyF5eTDvYgu442LaxHZ4lzCVCW3unrXmEtnbEhEM/+9ryQwghOCczqypbql7PyHRX5VenTmZlpbLctXDH1vSZzOJsiSY6Fh7K4bbdqO6viPQE95VP5S7fMuPFW/0M99rC3UK5o/OkVBDWGu6FCu7YnraUqKxP+Ewfxs2nmkv3vXQvMtzN6FMqRrIXA+6wAbJ+tHCfpVLug+Bwt+waxmdU78Id+rZrSWXfTHZBTox8qrXrvv+s6iDD/eADjsauO9DQSTaMAnd0sGNe1WF6c1oSuC9TCojTZPnURuNvVSd5LKPaFrgMlexqS0yI6Xe1J7YT/v4+M4VruPvw3OFjTJV4laZmTIZ7NLhDw9ePCPeVvGTFHu7PNUdUMaG82Z4Uzl+18R3zmg5zg9gwrlD8695/6NIz3J0odzT3PhTHLCX+wsN92chw96ncFXD/Yj5yT1SF7tg0nvITZUl8z82dwXms2DA2Iu8tiCwy3AGaSrNdcC62fMxwv6w53Gui3D+aj1xLB/cx+cJUCz50qldsWFl05jBuC3DfZiLD3bB6Sd5AfZThnpV7YLh/sI8L3dXc2Mp5A65nTJL0jB7wToBQjZNTvW/B8Q13J547mha9u4Kig1hFgXszw/3BKXe8YsU+j0Ld8Hf3f4eSnje+CZy/GjLi+BO7MRhafLmOsTEz8g93MY1Cw73LTCuB5OeSNFm5h3t6dVPuKeFO1UJKB75ip/2POt4jeqo/I/66elk0vjd496/Ktoxl6M2Ev5+7lDEr93DPvGbVMrh4/hoA7s9VcMfm8W9Rip7zWlNz/beuAjcGRqFRGFfM9LNyD226b4ceKh96Ge4+4e5eueNw/7eRFu471hYoqkq2Zq1PhezvImTwf7C66aDzT3hjJnvu0CPsHYYaf1UkuIsHIuRzVHe4J1XuCSsh1ZdzT6g3Js6nMumuIbcxMLvpwPgo0y5nN9sylqb7NqVR9dB2BvecUK2Ncofh+tkf3LsUtd5ztCbXAnRjUJl9PGPbfZ7hHhhAoptdWDpkW8YX3Ouh3D/4gzuVUWV9li4JHWwxIHWYhR0gz6lmuGOxJzLd5U26M9wTPXWrlkkL90IHd+ylh9wX+qX0W+RcxzYGS0O4GydVy+y5Cx/Qwbs99gFuYcqlkFGVOzTsKZU7fki0CjF2OrhjtuWMmybLhmgxADcGpqTpmNL9bn+qrNyxR9I7rHgvHZWs3LPnbg33doixIwrdP0uNiT5ns5RcaeOvnQE4AFPTz9c5t5y7/XaGuyy3TebeGQiz93Zl5Z49d971bjiEe5eYjHQ/ATQBOyVmofUtNieWBZF3yiEz3MHgE+SsxbfrPDK4D2oO92WGu7AUs0kAFRW5FWuKzomNgWU+1Z7uZfbcZcmPcx6LXRlQMtyzcreH+1ePcIfe+kdTD76H7wk12c8SBYblYabtfYWryzrmfpW7pHcYui+s3MF9neH+0JR7GLgTR1R3/QDMF59S+dQ2q1vXxMagtP+Elr779s9zHFmu4M73DkMzOvTVLhHuUG1HhLurO1SHNauWOa0N3L+IJdM1stBzzCt6s32td8GYmgb4hp2x2ezdjltPkTVyDHew2/PG8Ac6wpThHvKZ1ky5n9ZauWNFaC+JcrVNFEyIBR0jzZ22r94qImciLznKU/n13GGilnQVyDwa3OHBtulr+gCUu3vP/TRlaxnqiOpXcaXUtY0+5gfwKbEeHKWMi86rQNLdNdwdKXd0dq3pfOrQH9wXGe4PTbn7hHsLnY3w5dgbMxd1ckpY5YcqNCheWcXAyCvc75oBnuD+lJ1d4GrAV1dFgPswItw9bR63V7Ws3MPCHRv7GdvMnfum37gD5sfKYEHwxqhoZiURpDGeVcMz3EGXZTFliyfjwR0f7Az3rNxjwB37wJ/wbXBfIFy/ySswpGbhouDkHxPxfts4OvMTWXdT0Y48dzj8euTC9KnhEO7TRwr3bVN1TAPFK9w/+oQ7tB/+pn+eXQpIgE73Ct0YhHQrjdqIjXzCfYc/4Um5s73DjiSjkeHuyxl8OMr9c3K479yhnoCjMpZMXLRj+gw9nxo0FXX8zkK7L+lipMWLCM+OqhFXcJ9wa1SYW5giwX0WEe6e0j5LiWtQC+X+wSfcsfeu4Jr1W34iqq8+gQk1y36/u+L6rYHSvrX3hBg0P47xOIf7EUdrcDoKSsrlcH+PTpHykcJ9JflgWbkrLuiGBn8E51Pbko+6BAMj+O2THYOqmSlrevUaaR5PnjtpuvN18RHgju4mTMSord/1Isozy8o9Mtwhsdpjm7lzht/6GPsPw+9nC33VTMnCvUwEd1fKHZ0qK6a4RjJh5HCHr21cu4P7/G2M53VW7pHhDvFn9fRSJJVAG3LxFvv6MWrI1OJ9M3X5h4v9SB3gzvUOQ8vihzHh3oVnSMxRnngJLOG6k5W7ov8BJIKWY5lUQneq/5VWfITQkK9e6Og+JJ3kDHcGjd9N94JaCfzBvcpwz8o9BtyxFx/wYLu2dcH/DcNprO1s5x+VeO+RcF+208DdlecO9w6bNWT938PDHb70KOoR1XcCTeYJ7rnOXQF300LYbU3SurR8opnTuqLIDVg3Q+nLh6fcmRyp5Oam8HDHJ/s04ih3aw73fEJV05ZybIjfbRFq27YoXkwca67w2FjhIH5G7RLoF+5jHKqSO1c9wb3nDe6lX7hn5a6B+ztD/K6EEetvN9tRiPcRN6sWGe5EkvT7UjihV9kocB9IwyToKNcc7lm5a+B+Ysjfnmj8BGUoEZSkvCiyJGdVIrj78tyJJr6wyG9HhTtucMbMsjRjEZR/3FfLPKk93C198ZFQjvkrD24oiiKXZLwP08DdmXIv4J+DxmrZcAr3mDKl5TG0aqLc6w93y4zqHQ3aMYR77L1jUbyTFUVuZEihbzvLcIe/1Xcp15RKjcBwH8vjJCDcB9yMzZ67gK5hrtk71cPd0Dq5q0iKgR3cEzDwRGbNDLmdZ5nh/v2Be4d1QyJUDncikCJOZehq1zRpn4ej3H1ekE0EFbLKtqVyzKt7IbtedcrBPY3j6c1zR3uHLSpQIcvkaBS4R1zOoY35YugW7imVe1F/uNtlVHshV4406uJYUkw0514/jePpTrnDv+dcFqrB4Y4nmCIu55hZNM3K3R/c/zaAu11GdccU+cPsjyc6yFm84Z2lJQn3KsOdSP6sg/5uBdzh/gNRPW4I7knSPu6rZRLD/cIA7ma++K7NXdMM7qlasDTe0NbSTex2pd/tEcLd+MZZ4VdVwJ2Y6xGXc0gfJ0n7PBzlfpUa7p+DB9WuCi+7M6qp2p4L0qo3DhIW79M0r+UN7l1buLdjw53YAkdUypNY+vgRe+6O4W5VjL7TOzbLqI6Swb3RZOk+5OCeplzGnXJvmsJdKPkUcCe2wBFHvBtwJczK/ecT5PPhbN/Tc/jIKJzKoNuCKh3cG2yrmf9w06qf4W67y1OIYw3cz3U6KNAGzW10+VfuF3q4KnJQJnC3CqpZyL12qt6JP+nOfaLfPISqjOPe3uAX7ram+zQ63InfHxGm2DnCkVe4LzPcdf++kXUyDLnXXjWSPicD0Y/FxFyaXYk7z922E1EVH+6T4EuPhGxuM1rjrNz3PU9s4D4OGE5W24JeWrhzzTNftqlPu5imeCN/yt0yoyo1PjRwJ5JXNqZ7YfZCKbSTe+WOpzS/+IW7zUmj3caJVeuaYWK4F8xZ1Zv81Hu/K5c/uFv2sCsTwP0o/NqzpTiAqMACMIXr6d5zx8+IhoD7nwTc94yeTUZ19xpr1NI9STr/9gxhVqk2t24mOaDlD+6WPexmCeCOflErsVIM+ocnDhaAKZxB/8r9ecpTTM9t4M5MSlorGW0LGskfxnavOKchienuz3O3NN2rBHBnLEiLr3oCJUKxjzpyCvd6KPevAdQZUeb+NbhiGt07AxPusi2fM8G3OLn0GloOlbuh6S62GTRwZ+LIYrM2hlpXPPUaYA9IuV+lhfvVgVkSTCvZGKkzB3BvCn5uy+/a5RDuNltIVYJQA3eq7KyyYdbhmXN0GQui/NrkXLmfJoQ7Uwm51xWysE7uc8VtWtdMHcCdcA165Nv3M9yvHzO495LAnYmjufpjXRdwHW6hg41zgu51/pX76VW6WkgzuFtYJ/ftM00yqknPpwo+E1nonuT9HHrudseYRkng3jWIF/w53yq71aFt6BPuSZU7Xo340fzrPLGCu4V1sgqZJVt7YDuxTq3Y/yWB6e5RuVu1OZIXV6ngTp3Y067nTXQLgL3RzCfckyp3XD3b10ISl+zt/9ctrJNeyCxZ3wXc8VdZsUtbmeFO0zEIEnRwZ+JIO+S/8vvr15DC9xdi/pV7cZWuFpKphPxoI0kF2tMiSzbzAXe41u1mzw3eVpLgEIlHuKc/z6yCO1V2phzym932oWJ3LBMQ3xn0r9zxxoz2tZAXNgdUvz3P9PHUDrktGPqAO+wJ38Ad9OkTXNjh0XO3Mt2naeDO/XydYpnAnh541mLqMpiSKneCsNZwL+zgrrdO1tptof98KvGdblRZyyNC3Sp3oyNvivmigzv18/ttI2AdyDCAB9CjO4M1UO4XycplmGKZA/+4PqNahgzYtP1+BZ7wRmHZQL04Pia42xx5U3xMHdy569Qrq1WwtBjo6EH2/iEpd+tyGaZY5sC2QW+d9NTKQVKJ49V035CO4L7Fxpfp1B3uNkfe+qng3rISRNxEXOw1ZtCuSJVHuKdV7s+TZVRP7eCu9zqnernrqpbkntA/p+E+ifiOrZdEgLr03Kn2bCHcbCXcKZGkcI+2tgj7i93PfUZZDZR7OrhfWJW5G1gn++apvgTCuAr8OHzCr1LY9JqUAHHu0aVyNzkVodkF6eBOdmmam+FqbvBNbXyZ17ZDnVa5P7lKlVG1hLvWOtk7MdRqzHbDWLyqIsK9GW8F+4YW4hS5T7hbHGPSUEoHd3JtEp/5P6P+0ruIGqr1v7ZpLPXrAvcPtoy6MoS7thh9GdLzMU71tAbyvh4TGu7wvqWvfssuJQZ9wt3iGJNG7SnhTq5Nwol4ws0e9Jta+DITfIl4WMr9s2kYUPnUQ8djtV1/y0PQcZRP7V4uXseDO/xl1fWe1/8SLgZdeu4mpyLm6eBOrk2yibjzzOEeprbiiahvHIWb5tTAcy+uEpnuzPnUw5U6SrjPQqoxY7ycKbo28XDH9y1z9aJF/RWfyt3iGNMwHdzZtWnVFg80rg1gfTE1EO7456+Bcmes72SW+2FHaBIwnpT1bcZn567jbx4P7vCXVQqnnyEMS3encNeb7qotkBLurEhaCHzueyqKSv2CuTTB6NoS7v3awN0yMUhZ7ofh3g0YT0rPx/h86pHmb074xQ7ft9icR5/XG+76UxGqZrpauLMi6SX/Y8/oGqFnEcqMrp8fLeZnhnCvj3K3bAxJWe6HC3WaAeOp0NW3GR/efK9JX6JvUkn2LSoq/Z7BqHT36bkbFM6qUjRauNNrE72HfDegM/KwclOmVH/uKcAtaA2qZRjv29J0pyz3w03LdDG1Cun52DYj/RW9cxFJ0Q3uULRvUdSiFWcsLpwqd33h7Cwl3Ok4WpOD3jzn1wlYXyg3yRNqBOqg3E+vklS6X1hWQmoTWQd4ousYYkuXX79l8VckuBO1zwrXfUOHg9LdK9xDnqcLD3feguxTv7d1Jqi9wX+UKqnfGVDzuA6e+5OrFJXunCvzxehTCyWnLqM6DMOOtaAMDT4dX8lShGLReSt857WGu7ZwVufiaeHeOOPLiIklvdi79N1nzBR4Ul+xMm5UaM7M4L6sD9z/NQuBU2u4q2KqsomYCPnUDQoKJnJT8kGIfYtUut+OXuzFnHru6t5hZVq4C+IIl8tFVyayngb4Lfv259A8roNyZ9qq25nulCuDNKTUxNTBsRyH/ONSPC/4idOVwL0I7xdvgRqKUK/KXXue7v/cnc1PG00Sxmd2CWdPcNgcgz/E1WAjrjY2myvGtriCtLK4ZoyV8yutLP/Z+4Z8bAgz0/VUV3VXM/eQ9kzXr59+qrr6U1y4MyoT6PWQrgW5blmnD4ov3V/sak+k4L5JB+5ivkz+KFsJ6aeunWUePsXLG1F0/N5no1yg//qcBXeAVrzYOrhl/BWrcPc8xuRZzucNd87a1CfS/ajDFN5AcLOl+xW63U6hWgYS0VI93THLnZLI9RFMX1x/3Kd4uadHjhKcycxWAkg6Y8H5URecCDULd79jTGUrLtxZySsa3Y9u2UsbPbi5Lii+eUxBuUNFiVK+DCbcSUdjPTKqcymQCNcHOr9zOYJQ8I4XIcjSxjmyOD3lbACseu6etVWeNPCHOyt51SfUbk1vKeNquWW1hlb+s9SAsEak4LljuU0ZXwY7nkpbUviCyf0hfTwf0Xzqn5GH0Z1sGLzME0C1zxv497bvWJtrs8rdr3fYMjbcecmrvmsi5tM7j98PZAJOOWoqv8Y33Eko90PhuhV5V4b0n/LVNWEnzPdRZfOpr8aB0P2AO2jI8UJPV1WxnSLd7cLdy3QfxIY7098sR413yBRT4sCqK3wRfcGJuOnr3zMRgXts5Z7LnhVVcGXuJad1xWwAsy2yyVrf0F1SL2YCuij8MWjo15dYxUx+zhSwZuFOboUiaRnLwZ29Be5Oaqd63qaXz1cXu18qyovfji85x5Gacs/3oX0Z0JUh/p/sjCoh5cnPqH6RxEalH0q9OwZQP3/AHfv1WJPva27ZjVnP3evIha8WEIA7N2dQdup2kfm04ysOEH0BFxwd3HL+ShLVMuKdAJzPx714sYyPur4heD56yVrkqRQL5Yqk9nLg7OETf1P8FesUWNtGyind7Sp3nz5Hvhe7CMCdvwXurCrxPl11oOkz9l1xkHvW6yOjywlGa8odZK2/zQAWuVPXE7ZgIiz0/FvtJfOpdWG3Gvlg1D1NQBe5pLesrB+UU7rbhbtP77B5fLgzOhD8H6ur0R/mTHu6ugX/yNJ7wVxAkLo4ZRV+JeG5g3D3L3UH06lUuHPVNcnm5CbJypYgNI7qaxXcLgZCnJ7npogYXHlTlm2ZLtw9eoeNDcDdq5NHuVoMZ7OiKPKiaM+mQ0y111MVCkDkAEjO6EGckHLHYOufUgWFO7VCh7sblmskofRxKdBYzJp/RRuSYyee62ZJymk1st0p3e167h509NYCEnD3bknfWa0uhsOL1eqW95eqEg9YmndL7pnaNAnP3oByB/ObvtIdFe7kHO6lIn+vmfNcEi2NRWrb0aQlxfZXsxp3pQh0bzuMomWyyp1flet9l7oE3CXugf328NeIik8Plt9T28w3Cozm7HYayh2U0r7S/aMW3M/FZpKc53MjyQyH3zkqWjJsfy1Z8I1Lz1Wh6RyTQ7obhju/FcaJCbhff438VBRcoe+U1hG7efPYnAFJo1oG9Un8pPsBynbyYsLcDQ8kXzDHzydnH1274bpjgm00pTUWeLXdxujKCWNapgp3foZmYALuB7HhXmV3o4kMCt1zx+axse4rEeX+cR9QusPCnVx8+U/FgGKKMdHzqU5klJ1VRWY1v0ZzWq+dX064N/UbIY2pWbob9tzZ0tc//S4Cd78ztiLS/bVmho+auLuZ5ReutzVP3nOHXXAf6Q477vSOBzx1TexSy8uoSuZTST+vs1q8NN+L6erUf0lihXt/UfdqiWNapqrcuSZePzMBd++rAv2f11GJl9+7upm13bOwSZwlotwP9+GkOyzc6UsJT3AQXz/vULZkv1+qNfI334ej2WRSFBNeKVrVK2H9/HI1rNgb57OLW4F11zLcufUmPSNwj+/LVCzseEqtHI6b7HbKLJwnr9zh4kS+dMeFO9DwgKWuiQUKvEPZkudTkaWr01l9e247rFF/kcs5rEaz4qXXTka7Q7pbhjvX17gxAnefY1hS0l0ipVbWVwjPLkhvqkFfJKLcYbizpTt6OBU7Evtekb8sMeOfIPNXg4znk2S49xejWbt4ftqz2RAyiZqku2XPnWniCaTfheD+ITrclzIBUL40KX9JjOkdexyJVcvgXgm38+8xznagmQ1LXVMDikM3yXxqwHgbCOYInyOsv1oNh8MV7v4v01TuzI8l0EFUCO4BlQR9neOtmNvRpHjxXvOiPaVvHuv1RSrK/VDPCPcW7sA6knM+PjWgOFX0kvnUz1EDy6N1mmxeLQ2480zrp8wK3KXOMbGfJ0F5Uy7+5nueZ62s1WoVxfQCWrl6qXvuONx5xgyD7UiPYU69Illcv48Trb++cDgbdGso3Jdpwp1XOTu3A/fYvsyZ6Hai0+kvhsPpbDi86HTAPFRnnLhyZyhqjjHDMGWwLpRXivx9FydaIyjn6gkZ59hivXQ37bnz9lkDO3APqCXokstn83raeX4YPRF6iSt3jqS+xyceR7hD/eMZ6poc+5yGIWM5WgQsPe5ZKo9bJqncWfu87dgO3COXuvcMbSfq0typKHdG9TluzLDYvv+vrrwtydVnjJ22YL9ffrsSqf1GpGOLtcSzDXeOFJAAgRjcj2KyvYanIYPgd/XdSrpahlN+DtN9zWE7tkHAXTmg+gyHm+D9qfxGg3hkDUzZsMsk4c65zujEEtwjgbQZiXG2EzW3diSj3DMOd9cQu1iGO+r+wDNyS//b+MwSzKe+DzeX61LMkcK9Trrb9tw5+eczS3CPmVKtPR4SUOK4pXsynjurjgWqh2SyHbyyFa5XBFZWfLYL5lMDgnVjzIZdpqjcOfnnlim4Ryx1r9/xxrEGq6V7Osr9416X7oePQeD+QYgcMoa+XD41ZKT1Mlu6qcY5Mw73d4JIiwL3iCnVubXtRKV0T0e5H+5V6c5lO1qTAwP4BnjHqHoWzKeGnNQDC9sH9wJsHO74cizSZE4Q7tGke0PVUKwxnSWt3PO9Jt3ZbEfhDn/8gaKNuhUjRchKlYYUcyTdVL1IGvfc8QzFjTG45+dfLS3mAFHDGEWkmDSh3DMuftcUv53NdrQiB76MC3FO0Ikl1+83P407j7l7F80Mr3HlDrsaMpd2CcI92lo+tleh2UtauTNNd0rNTL5msx0/BwtKXOjdo5NdLp8aMsxOzNmw8xRtGfibbTNrcI9UHtWzsod1ZFTT8dy5pvs3df3QiPfj9Z7/PCjrJahYEVQNgv1+Q25GB9Zs2JrSTOtwR0/0ds3BPY50d4TNuxhj6qZdLcM23Z/Fe/1N9wXfkkEby3AyqnONwBHPp4a0QxobqUWxYWu+kXHPHda9c3twjyLdu/bGVL3eJKTcMx8I7x4KDbSjhZC4Xhoohqtcv9+Q7XabEwURqiHr0iLWlXv+WXEqhoF7DOnu3O9GGNOGv522odz5pvt3DFdY77kn2jmtJ0EAY0msz4KY1MzN+Tw31nRTL0sT7uChYomuYeJwL06NgDRuVn/OT+8ZUe6HniDer9fFb4Av1uu993OPvwkIwOBNSe8FpgTnCTidXV5ScN1UWzthHu5HslCLAfeQXS9+PO4eDMF7T9dQIiXlnvvK7P1u/7j++Tw+Pvqzfaetl540w1UsnxrSC3EpjeDSvbbo2brnDqZoeibhHlwmE47ptu9srDcpee6ZAI2fibzbSz0cuEPS8kTnLTdLTuX9vUr2Mpp0r3crzCt3rGrvzCTcQ8vkkvIarmysNykpd39fRvy557wJTefkTlaDGHRlnCtSYOme6DV7MISkpIA03ANL9664xtJbb5JS7rk5uLe0UYhGFFIJKNbvN+QVSARzIKh0b0iK2If7uwhSQBruYT838WhI0O1Et+UDdyvKXcqXierKQACGK9GRmS6WTw0ZXoRdcX5rwyUy77lDClNKCojDPehOjZh4CLmdqF9vSK6bFeXuWQwp/zywXgXgUG80tdiZFCMuw81kUvXQkY3x2FfuyCZybhXuIbUF2ZsKKN27fnV5ZpT74VtwZRAA9zS1mJTlbqKV+wt+hDumepYlDXfgRY3Nwj3g5yZfrhBOum8nfnA3o9yN+TI7dRh+gkOHPqm2UnAPqFKIyuko1HLTbaUNd7roFWtVIQ/3rB3qcwPnuD4YWG/SUu7GfJkH5vQmA5jR2YtukYjlUwNa3BtbWq6cSCwxEeFObxvRzezCPb+OD9JY0r1pvUlMuR++AVcGADCj/Ixe3SbGlGmwLSh5sQsUWs3BnoByp+uMuWG4h/rcXSTgw+weG8vuE1Pu+WP6rgzgYzA6aB+Jg5Lwe0y4IOGtov44dbjTdcbAMtzDzEAsYsLsHrveH9eOcjdlut+rb4YZL55ccy54f2oWKqNFr+8JUR/nOqyYAtyvgs8WFbgHISlY3RBiO9GcBEhMuZvyZdjznQxgxl6YPKW2gogIVGqMpIAD7Ip7QkOICXeqzpDrDq0C9xAVW3BXzAC7x2ZAJOa5W/Jldvos5OyFL3V0iAWDEVnr8qvowZ6Ccj8IPlt04B6ApPCxEP0L9xw2ZWrK3VC9zD3/ZVC/+pjxtz8rkNJGvQJ2AF69NZ8z2FOAOxVAA+twVycplE39PiRtybOdCKDAkHLPjs0Idw8XkqgqWZXo1ALbgSwkLmwJd/3dxLL1FuBO1AJyDUS14J4d6S7mrKtKlCXPSOLbWlLuninV3e5XQ/f1LpIrQy5pYb339tfQ4fr9+6qntNDOVbrrTXcstrpEhfsHPZkRFu66FTMlq1eHbp534fooqVXL+Pgy38B+XBQ/XklRHB+v148xXBmq09lTDB65fr8/UaZ8lgkPrwPFEZUTQrIyBbjT4vIpsw931ZqtHi9cNHePfae8SE+5c+tl/ib7tzuy85czrfg3k+8+rgx1grNscWK2diOOCWUbhKEw9C6IKufZG4F7dqo2E0PDXXExd4M0+HaCIHaS89yZvsz6oVVD47xgXaX6l9cEp2V/eDPq6mvgcA3iMLJspOuoQi4NuF/pzcTAcNeTF5R9WujtxCiTgbsp5c5Jqe4eiqZozNcBi9yfn3+RphTv//hHhHzq99eoSfcla0RKoUWrnEjCcyeZ7pIH3hThnk2jJc/ruXcXb0gJKvdDBtpdfxNW7zv9iOJmsWiCcazAiQO92vLN2FBobSeCHyI23CnHmDaJwF1JXvR8fr5OSS5JXiSo3FFfZl0QXkRx/BgsnUp9G0+Kf1uw/OH3iaxVoMLeF2uE1vYse0Nwp+RoJEeoCXedmi1CYVTT750qmEUbUjykVy0DSvfdAxFj7XWodCp1hnND6k5v4XB+5ZUhU+b7Tl08tMpR9pbgTkHAIBW4Z235pGp/4vmD5ZOqfZq8SFG5Iy0I1vSe64jz/leAiGKH1HlEoOhULHQ91lLp0CKzPRHPnZBRlbTcleEuT/et922U4gcuiGxP0XNHUqpraFrSrZmWfkTxjxlRDP2zLCG6d3y0k7BwKumbiESUu9t0l+wxpw136fMWnaXATz4XnYIdavCmqNyzQoftdLp7C3fKPapbvWgVP5+qanuWfitRfnUqyfbWW4O7OzJ7KcFdtiCSvk9rpnuUcEhSuVNTqvg1eES633u/DkLgdxVf9VYRFm1punsUov2ge5yxJAJ396GLm6TgLtqvy3fu/QzJS8HlpiUKd2vKnZhS5VxxSqL7TmCK3+nFPOFvd7N06N5t2RnQCBlLIp67kwGy2zx1uEvWpwixXXAKAmxPslqGKN1511dT6P4g8D7cAObrpcvIPDmQzCBtJmYGVEJsT0W5O3M0smWz+nAXu9UX/N7NdJeZgltkSGkqd0pK9T/MD3OsXgdJy6h63HF6pbhwhNZO/YnIgCSyqlsw1lOBe1skJC3BPZveGmO7EN3/x97d87ZxgwEAFhG1s64R3M5KhawxLCOrBRnonChC5y5G5nON/oH+8CofKDzYd7wjeRKd59GQKSeGR758j3xPWQ86Aqhzzz2iGvJudEsvpkjc+0taEvKl3l8ULnie+k2zy1SzsM5U1hOu/5x2YlUU3PvC7Yf6gnuOmpl11tj+5fExOcE4DJsNlWbu4bfMdTKP3U2QuPf/6u99wWs/lA8YeSrS1vlKNhOXm3Z4U2rZc+/bxrupMLjP5oe3ZzP0/n98XKUNwf3Ap9hKM/dZKBmA78on7v2/epJQf9Z7ono/QcRYZijuzbMn871Tlh8TGtS+Gd6UWjL32S/d//RFjcH9+Ky2SlrLt/n7ObxOadJq8OlupZl73//ZkTYeuzd9Mo31vlPPhIfh3uK2T1OEjCZ5nzvvBAsJFQvtppm93ODe3dDMmcBUwX0WEo5V231ToqNDwvuzD8N3iSqtlulJ3VOT64uiLzDFLavvEq79a8FrD4jut2k7IW9yJ0/N2Om+3i5mLzi4d8fb3ysN7gmr+cOmKdTTy7G/W7kfMQSrzdy7dt3T4+9F8cS970Q16cyz77T2ZqKgsUw5Q9pvCyw316PS9m0Y823V7Ll31+Ve1hrcj+Nv3Gq+v12UmxOjzn4eNmMmQ6177l0vMmU48Xx+YyZX4t536plUXFzy2hMM5W/DucgKtBzeoP3YqolqMvfu2tmbaoP78ctuh6cX68226JRYXg0dgu3I1abazL3jRaYcJ57zzyVLZSIG+d8Fr30/YdxYXo8K74fMdWiPnyaGNKg9XI2e6q/+qSW4/zRhJjBpcP+ymg8rm1nvt6V7O+wGrTjt6Lnwvt7g/nP2CveIjZm/8t3i96WKZfqes3Pvova4PQwO76uSMyzsohu0Sprqy7erKB9OHtznHS3NPVjCqo36ZMtAjqt5bCxt1yV3ZB5tD+4OsXUzq4Q054+Y0XeW2zLPFsxkujufyybux2fhtqvPL8/22mP2ZgYlT+16U3aGHR/WV1Gh/SppjZlfxbk8eXAPu+db9y73d0X2yibfVy6vogZge8wpwkQ93uw+xg3BlKPd11P1c4Hg/vTGeK7c+smr59x/fNXZ52nfNC947dJb76tPTfHsqVn2hvfjEpPajkUTmgiz0wuL6VoXojol6xgIMW9MH5fyKW9F038c0O5vk7ohxIy/HP1cIrg/tXXyb7bevyi5KfN17i+Kzfju23qC6NEMsDiTFs14Oc5m3A1qUiWdGwrM7FD0DoXT3/4fam5N28v943HhbgvuJw6JLyy4N4nXFNzPdQBEfqbr40Xnhx9sAJ7CixmCcXN7ePd8/Uvf/8jf+Y+uHkwQAAAAAAAAAAAAAAAAAAAAAAAAAAAAAAAAAAAAAAAAAAAAAAAAAAAAAAAAAAAAAAAAAAAAAAAAAAAAAAAAAAAAAAAAAAAAAAAAAAAAAAAAAAAAAAAAAAAAAAAAAAAAAAAAAAAAAAAAAAAAAAAAAAAAAAAAAAAAAAAAAAAAAAAAAAAAAAAAAAAAAAAAAAAAAAAAAAAAAAAAAAAAAAAAAAAAAAAAAAAAAAAAAAAAAAAAAAAAAAAAAAAAAAAAAAAAAAAAAAAAAAAAAAAAAAAAAAAAAAAAAAAAAAAAAAAAAAAAAAAAAAAAAAAAAAAAAAAAAAAAAAAAAAAAAAAAAAAAAAAAAAAAAAAAAAAAAAAAAAAAAAAAAAAAAAAAAAAAAAAAAAAAAAAAAAAAAAAAAAAAAAAAAAAAAAAAAAAAAAAAAAAAAAAAAAAAAAAAAAAAAAAAAAAAAAAAAAAAAAAAAAAAAAAAAAAAAAAAAAAAAAAAAAAAAAAAAAAAAAAAAAAAAAAAAAAAAAAAAAAAAAAA4D/24EAAAAAAAMj/tRFUVVVVVVVVVVVVVVVVVVVVVVVVVVVVVVVVVVVVVVVVVVVVVVVVVVVVVVVVVVVVVVVVVVVVVVVVVVVVVVVVVVVVVVVVVVVVVVVVVVVVVVVVVVVVVVVVVVVVVVVVVVVVVVVVVVVVVVVVVVVVVVVVVVVVVVVVVVVVVVVVVVVVVVVVVVVVVVVVVVVVVVVVVVVVVVVVVVVVVVVVVVVVVVVVVVVVVVVVVVVVVVVVVVVVVVVVVVVVVVVVVVVVVVVVVVVVVVVVVVVVVVVVVVVVVVVVVVVVVVVVVVVVVVVVVVVVVVVVVVVVVVVVVVVVVVVVVVVVVVVVVVVVVVVVVVVVVVVVVVVVVVVVVVVVVVVVVVVVVVVVVVVVVVVVVVVVVVVVVVVVVVVVVVVVVVVVVVVVVVVVVVVVVVVVVVVVVVVVVVVVVVVVVVVVVVVVVVVVVVVVVVVVVVVVVVVVVVVVVVVVVVVVVVVVVVVVVVVVVVVVVVVVVVVVVVVVVVVVVVVVVVVVVVVVVVVVVVVVVVVVVVVVVVVVVVVVVVVVVVVVVVVVVVVVVVVVVVVVVVVVVVVVVVVVVVVVVVVVVVVVVVVVVVVVVVVVVVVVVVVVVVVVVVVVVVVVVVVVVVVVVVVVVVVVVVVVVVVVVVVVVVVVVVVVVVVVVVVVVVVVVVVVVVVVVVVVVVVVVVVVVdqDAwEAAAAAQf7WKwxQAQAAAAAAAAAAAAAAAAAAAAAAAAAAAAAAAAAAAAAAAAAAAAAAAAAAAAAAAAAAAAAAAAAAAAAAAAAAAAAAAAAAAAAAAAAAAAAAAAAAAAAAAAAAAAAAAAAAAAAAAAAAAAAAAAAAAAAAAAAAAAAAAAAAAAAAAAAAAAAAAAAAAAAAAAAAAAAAAAAAAAAAAAAAAAAAAAAAwBTjihpzCwBOtgAAAABJRU5ErkJggg==;" vertex="1" parent="1">
          <mxGeometry x="357.76" y="10" width="111.29" height="70" as="geometry" />
        </mxCell>
        <mxCell id="kwVMyN6og_hL9zy3wJ2y-18" value="Data Transformation" style="sketch=0;outlineConnect=0;fontColor=#232F3E;gradientColor=none;fillColor=#01A88D;strokeColor=none;dashed=0;verticalLabelPosition=bottom;verticalAlign=top;align=center;html=1;fontSize=12;fontStyle=0;aspect=fixed;shape=mxgraph.aws4.migration_hub_refactor_spaces_services;" vertex="1" parent="1">
          <mxGeometry x="394" y="334" width="40" height="40" as="geometry" />
        </mxCell>
        <mxCell id="kwVMyN6og_hL9zy3wJ2y-20" value="Data Storage" style="outlineConnect=0;dashed=0;verticalLabelPosition=bottom;verticalAlign=top;align=center;html=1;shape=mxgraph.aws3.archive;fillColor=#E05243;gradientColor=none;" vertex="1" parent="1">
          <mxGeometry x="640" y="30" width="40" height="47.5" as="geometry" />
        </mxCell>
        <mxCell id="kwVMyN6og_hL9zy3wJ2y-21" value="Azure Blob Storage" style="image;sketch=0;aspect=fixed;html=1;points=[];align=center;fontSize=12;image=img/lib/mscae/BlobBlock.svg;" vertex="1" parent="1">
          <mxGeometry x="635" y="138" width="50" height="42" as="geometry" />
        </mxCell>
        <mxCell id="kwVMyN6og_hL9zy3wJ2y-23" style="edgeStyle=orthogonalEdgeStyle;rounded=0;orthogonalLoop=1;jettySize=auto;html=1;entryX=-0.017;entryY=0.48;entryDx=0;entryDy=0;entryPerimeter=0;" edge="1" parent="1">
          <mxGeometry relative="1" as="geometry">
            <mxPoint x="250" y="205" as="sourcePoint" />
            <mxPoint x="634.1499999999999" y="166.15999999999997" as="targetPoint" />
            <Array as="points">
              <mxPoint x="250" y="166" />
            </Array>
          </mxGeometry>
        </mxCell>
        <mxCell id="kwVMyN6og_hL9zy3wJ2y-24" value="Raw Data" style="edgeLabel;html=1;align=center;verticalAlign=middle;resizable=0;points=[];" vertex="1" connectable="0" parent="kwVMyN6og_hL9zy3wJ2y-23">
          <mxGeometry x="0.6247" y="-3" relative="1" as="geometry">
            <mxPoint as="offset" />
          </mxGeometry>
        </mxCell>
        <mxCell id="kwVMyN6og_hL9zy3wJ2y-29" style="edgeStyle=orthogonalEdgeStyle;rounded=0;orthogonalLoop=1;jettySize=auto;html=1;entryX=0;entryY=0.477;entryDx=0;entryDy=0;entryPerimeter=0;" edge="1" parent="1" source="kwVMyN6og_hL9zy3wJ2y-25" target="kwVMyN6og_hL9zy3wJ2y-28">
          <mxGeometry relative="1" as="geometry" />
        </mxCell>
        <mxCell id="kwVMyN6og_hL9zy3wJ2y-34" style="edgeStyle=orthogonalEdgeStyle;rounded=0;orthogonalLoop=1;jettySize=auto;html=1;" edge="1" parent="1" source="kwVMyN6og_hL9zy3wJ2y-25" target="kwVMyN6og_hL9zy3wJ2y-33">
          <mxGeometry relative="1" as="geometry" />
        </mxCell>
        <mxCell id="kwVMyN6og_hL9zy3wJ2y-25" value="Azure SQL &lt;br&gt;Data Warehouse" style="verticalLabelPosition=bottom;html=1;verticalAlign=top;align=center;strokeColor=none;fillColor=#00BEF2;shape=mxgraph.azure.sql_database_sql_azure;" vertex="1" parent="1">
          <mxGeometry x="640" y="244" width="45" height="50" as="geometry" />
        </mxCell>
        <mxCell id="kwVMyN6og_hL9zy3wJ2y-27" value="Processed Data" style="edgeStyle=orthogonalEdgeStyle;rounded=0;orthogonalLoop=1;jettySize=auto;html=1;entryX=0;entryY=0.5;entryDx=0;entryDy=0;entryPerimeter=0;" edge="1" parent="1" source="kwVMyN6og_hL9zy3wJ2y-11" target="kwVMyN6og_hL9zy3wJ2y-25">
          <mxGeometry relative="1" as="geometry" />
        </mxCell>
        <mxCell id="kwVMyN6og_hL9zy3wJ2y-31" style="edgeStyle=orthogonalEdgeStyle;rounded=0;orthogonalLoop=1;jettySize=auto;html=1;" edge="1" parent="1" source="kwVMyN6og_hL9zy3wJ2y-28" target="kwVMyN6og_hL9zy3wJ2y-30">
          <mxGeometry relative="1" as="geometry" />
        </mxCell>
        <mxCell id="kwVMyN6og_hL9zy3wJ2y-32" value="Reporting" style="edgeLabel;html=1;align=center;verticalAlign=middle;resizable=0;points=[];" vertex="1" connectable="0" parent="kwVMyN6og_hL9zy3wJ2y-31">
          <mxGeometry x="0.1137" y="-3" relative="1" as="geometry">
            <mxPoint as="offset" />
          </mxGeometry>
        </mxCell>
        <mxCell id="kwVMyN6og_hL9zy3wJ2y-28" value="Azure Databricks&amp;nbsp;&lt;br&gt;For&amp;nbsp;&lt;span style=&quot;font-family: &amp;quot;Helvetica Neue&amp;quot;; font-size: 13px; text-align: start;&quot;&gt;Data Analysis&lt;/span&gt;" style="image;aspect=fixed;html=1;points=[];align=center;fontSize=12;image=img/lib/azure2/analytics/Azure_Databricks.svg;" vertex="1" parent="1">
          <mxGeometry x="800" y="112" width="44.33" height="48" as="geometry" />
        </mxCell>
        <mxCell id="kwVMyN6og_hL9zy3wJ2y-30" value="" style="verticalLabelPosition=bottom;sketch=0;aspect=fixed;html=1;verticalAlign=top;strokeColor=none;align=center;outlineConnect=0;shape=mxgraph.citrix.reporting;" vertex="1" parent="1">
          <mxGeometry x="1033.75" y="100" width="61.5" height="69" as="geometry" />
        </mxCell>
        <mxCell id="kwVMyN6og_hL9zy3wJ2y-36" style="edgeStyle=orthogonalEdgeStyle;rounded=0;orthogonalLoop=1;jettySize=auto;html=1;" edge="1" parent="1" source="kwVMyN6og_hL9zy3wJ2y-33" target="kwVMyN6og_hL9zy3wJ2y-35">
          <mxGeometry relative="1" as="geometry" />
        </mxCell>
        <mxCell id="kwVMyN6og_hL9zy3wJ2y-38" value="Data &lt;br&gt;Visualization" style="edgeLabel;html=1;align=center;verticalAlign=middle;resizable=0;points=[];" vertex="1" connectable="0" parent="kwVMyN6og_hL9zy3wJ2y-36">
          <mxGeometry x="0.3132" relative="1" as="geometry">
            <mxPoint as="offset" />
          </mxGeometry>
        </mxCell>
        <mxCell id="kwVMyN6og_hL9zy3wJ2y-33" value="Power BI&lt;br&gt;For&amp;nbsp;&lt;span style=&quot;font-family: &amp;quot;Helvetica Neue&amp;quot;; font-size: 13px; text-align: start;&quot;&gt;Data Visualization&lt;/span&gt;" style="image;aspect=fixed;html=1;points=[];align=center;fontSize=12;image=img/lib/azure2/analytics/Power_BI_Embedded.svg;" vertex="1" parent="1">
          <mxGeometry x="804.91" y="246" width="34.5" height="46" as="geometry" />
        </mxCell>
        <mxCell id="kwVMyN6og_hL9zy3wJ2y-35" value="" style="sketch=0;pointerEvents=1;shadow=0;dashed=0;html=1;strokeColor=none;fillColor=#434445;aspect=fixed;labelPosition=center;verticalLabelPosition=bottom;verticalAlign=top;align=center;outlineConnect=0;shape=mxgraph.vvd.nsx_dashboard;" vertex="1" parent="1">
          <mxGeometry x="1040" y="246.5" width="49" height="45.57" as="geometry" />
        </mxCell>
        <mxCell id="kwVMyN6og_hL9zy3wJ2y-39" value="" style="rounded=1;whiteSpace=wrap;html=1;fillColor=none;strokeWidth=5;rotation=90;" vertex="1" parent="1">
          <mxGeometry x="-58" y="230" width="310" height="110" as="geometry" />
        </mxCell>
        <mxCell id="kwVMyN6og_hL9zy3wJ2y-40" value="" style="rounded=1;whiteSpace=wrap;html=1;fillColor=none;strokeWidth=5;rotation=90;" vertex="1" parent="1">
          <mxGeometry x="156.88" y="177.13" width="181.75" height="121.5" as="geometry" />
        </mxCell>
        <mxCell id="kwVMyN6og_hL9zy3wJ2y-41" value="" style="rounded=1;whiteSpace=wrap;html=1;fillColor=none;strokeWidth=5;rotation=90;" vertex="1" parent="1">
          <mxGeometry x="383.92" y="-23.29" width="65.18" height="140.75" as="geometry" />
        </mxCell>
        <mxCell id="kwVMyN6og_hL9zy3wJ2y-43" value="" style="rounded=1;whiteSpace=wrap;html=1;fillColor=none;strokeWidth=5;rotation=90;" vertex="1" parent="1">
          <mxGeometry x="347.65" y="192.42" width="115.48" height="142.88" as="geometry" />
        </mxCell>
        <mxCell id="kwVMyN6og_hL9zy3wJ2y-44" value="" style="rounded=1;whiteSpace=wrap;html=1;fillColor=none;strokeWidth=5;rotation=90;" vertex="1" parent="1">
          <mxGeometry x="547.13" y="168.87" width="224" height="127.13" as="geometry" />
        </mxCell>
        <mxCell id="kwVMyN6og_hL9zy3wJ2y-45" value="" style="rounded=1;whiteSpace=wrap;html=1;fillColor=none;strokeWidth=5;rotation=90;" vertex="1" parent="1">
          <mxGeometry x="691.14" y="163.9" width="259.84" height="134.92" as="geometry" />
        </mxCell>
        <mxCell id="kwVMyN6og_hL9zy3wJ2y-46" value="" style="rounded=1;whiteSpace=wrap;html=1;fillColor=none;strokeWidth=5;rotation=90;" vertex="1" parent="1">
          <mxGeometry x="951.67" y="150.33" width="224.5" height="92.92" as="geometry" />
        </mxCell>
        <mxCell id="kwVMyN6og_hL9zy3wJ2y-48" value="Data Analysis" style="image;aspect=fixed;html=1;points=[];align=center;fontSize=12;image=img/lib/azure2/analytics/Analysis_Services.svg;" vertex="1" parent="1">
          <mxGeometry x="790.66" y="16" width="63" height="48" as="geometry" />
        </mxCell>
        <mxCell id="kwVMyN6og_hL9zy3wJ2y-49" value="Data&amp;nbsp;&lt;span style=&quot;font-family: &amp;quot;Helvetica Neue&amp;quot;; font-size: 13px; text-align: start;&quot;&gt;Visualization&lt;/span&gt;" style="shape=image;html=1;verticalAlign=top;verticalLabelPosition=bottom;labelBackgroundColor=#ffffff;imageAspect=0;aspect=fixed;image=https://cdn3.iconfinder.com/data/icons/fintech-icon/128/11_Data_Visualization-128.png" vertex="1" parent="1">
          <mxGeometry x="1036" y="-1" width="50" height="50" as="geometry" />
        </mxCell>
      </root>
    </mxGraphModel>
  </diagram>
</mxfile>
